<mxfile host="app.diagrams.net" agent="Mozilla/5.0 (Macintosh; Intel Mac OS X 10_15_7) AppleWebKit/605.1.15 (KHTML, like Gecko) Version/18.0 Safari/605.1.15" version="26.0.11">
  <diagram name="Page-1" id="UmQpy1SQtzT-f7T2Tqup">
    <mxGraphModel dx="1122" dy="761" grid="1" gridSize="10" guides="1" tooltips="1" connect="1" arrows="1" fold="1" page="1" pageScale="1" pageWidth="827" pageHeight="1169" math="0" shadow="0">
      <root>
        <mxCell id="0" />
        <mxCell id="1" parent="0" />
        <mxCell id="Sbq3aa2Fa-XjTyS6zx-i-1" value="User" style="rounded=0;whiteSpace=wrap;html=1;" parent="1" vertex="1">
          <mxGeometry x="645" y="250" width="120" height="60" as="geometry" />
        </mxCell>
        <mxCell id="Sbq3aa2Fa-XjTyS6zx-i-2" value="Email" style="ellipse;whiteSpace=wrap;html=1;" parent="1" vertex="1">
          <mxGeometry x="780" y="340" width="80" height="50" as="geometry" />
        </mxCell>
        <mxCell id="Sbq3aa2Fa-XjTyS6zx-i-3" value="DOB" style="ellipse;whiteSpace=wrap;html=1;" parent="1" vertex="1">
          <mxGeometry x="540" y="165" width="80" height="55" as="geometry" />
        </mxCell>
        <mxCell id="Sbq3aa2Fa-XjTyS6zx-i-6" value="Name" style="ellipse;whiteSpace=wrap;html=1;" parent="1" vertex="1">
          <mxGeometry x="690" y="110" width="90" height="60" as="geometry" />
        </mxCell>
        <mxCell id="Sbq3aa2Fa-XjTyS6zx-i-7" value="User ID" style="ellipse;whiteSpace=wrap;html=1;align=center;fontStyle=4;" parent="1" vertex="1">
          <mxGeometry x="565" y="90" width="100" height="40" as="geometry" />
        </mxCell>
        <mxCell id="Sbq3aa2Fa-XjTyS6zx-i-8" value="Phone No." style="ellipse;shape=doubleEllipse;margin=3;whiteSpace=wrap;html=1;align=center;" parent="1" vertex="1">
          <mxGeometry x="820" y="170" width="100" height="60" as="geometry" />
        </mxCell>
        <mxCell id="Sbq3aa2Fa-XjTyS6zx-i-21" value="" style="endArrow=none;html=1;rounded=0;exitX=1;exitY=0.75;exitDx=0;exitDy=0;" parent="1" source="Sbq3aa2Fa-XjTyS6zx-i-1" target="Sbq3aa2Fa-XjTyS6zx-i-2" edge="1">
          <mxGeometry relative="1" as="geometry">
            <mxPoint x="1005" y="460" as="sourcePoint" />
            <mxPoint x="1165" y="460" as="targetPoint" />
          </mxGeometry>
        </mxCell>
        <mxCell id="Sbq3aa2Fa-XjTyS6zx-i-23" value="" style="endArrow=none;html=1;rounded=0;entryX=1;entryY=0.25;entryDx=0;entryDy=0;" parent="1" source="Sbq3aa2Fa-XjTyS6zx-i-8" target="Sbq3aa2Fa-XjTyS6zx-i-1" edge="1">
          <mxGeometry relative="1" as="geometry">
            <mxPoint x="890" y="256" as="sourcePoint" />
            <mxPoint x="927" y="304" as="targetPoint" />
          </mxGeometry>
        </mxCell>
        <mxCell id="Sbq3aa2Fa-XjTyS6zx-i-27" value="" style="endArrow=none;html=1;rounded=0;entryX=0.75;entryY=0;entryDx=0;entryDy=0;" parent="1" source="Sbq3aa2Fa-XjTyS6zx-i-6" target="Sbq3aa2Fa-XjTyS6zx-i-1" edge="1">
          <mxGeometry relative="1" as="geometry">
            <mxPoint x="900" y="266" as="sourcePoint" />
            <mxPoint x="937" y="314" as="targetPoint" />
          </mxGeometry>
        </mxCell>
        <mxCell id="Sbq3aa2Fa-XjTyS6zx-i-29" value="" style="endArrow=none;html=1;rounded=0;exitX=1;exitY=0.5;exitDx=0;exitDy=0;" parent="1" source="Qe4SS81F0-tgrvaNX6qW-26" edge="1">
          <mxGeometry relative="1" as="geometry">
            <mxPoint x="600" y="170" as="sourcePoint" />
            <mxPoint x="645" y="280" as="targetPoint" />
          </mxGeometry>
        </mxCell>
        <mxCell id="Sbq3aa2Fa-XjTyS6zx-i-30" value="" style="endArrow=none;html=1;rounded=0;entryX=0;entryY=0.5;entryDx=0;entryDy=0;" parent="1" edge="1" target="Sbq3aa2Fa-XjTyS6zx-i-31">
          <mxGeometry relative="1" as="geometry">
            <mxPoint x="764" y="279.5" as="sourcePoint" />
            <mxPoint x="910" y="280" as="targetPoint" />
          </mxGeometry>
        </mxCell>
        <mxCell id="Sbq3aa2Fa-XjTyS6zx-i-31" value="Shop" style="rhombus;whiteSpace=wrap;html=1;" parent="1" vertex="1">
          <mxGeometry x="980" y="240" width="80" height="80" as="geometry" />
        </mxCell>
        <mxCell id="Sbq3aa2Fa-XjTyS6zx-i-32" value="" style="endArrow=none;html=1;rounded=0;entryX=0;entryY=0.5;entryDx=0;entryDy=0;exitX=1;exitY=0.5;exitDx=0;exitDy=0;" parent="1" edge="1" target="Sbq3aa2Fa-XjTyS6zx-i-33" source="Sbq3aa2Fa-XjTyS6zx-i-31">
          <mxGeometry relative="1" as="geometry">
            <mxPoint x="970" y="279.5" as="sourcePoint" />
            <mxPoint x="1050" y="280" as="targetPoint" />
            <Array as="points" />
          </mxGeometry>
        </mxCell>
        <mxCell id="Sbq3aa2Fa-XjTyS6zx-i-33" value="Cart" style="rounded=0;whiteSpace=wrap;html=1;" parent="1" vertex="1">
          <mxGeometry x="1181" y="250" width="120" height="60" as="geometry" />
        </mxCell>
        <mxCell id="Sbq3aa2Fa-XjTyS6zx-i-45" value="" style="endArrow=none;html=1;rounded=0;entryX=0.25;entryY=0;entryDx=0;entryDy=0;exitX=1;exitY=1;exitDx=0;exitDy=0;" parent="1" target="Sbq3aa2Fa-XjTyS6zx-i-1" edge="1" source="Sbq3aa2Fa-XjTyS6zx-i-3">
          <mxGeometry relative="1" as="geometry">
            <mxPoint x="640" y="350" as="sourcePoint" />
            <mxPoint x="710" y="320" as="targetPoint" />
          </mxGeometry>
        </mxCell>
        <mxCell id="Sbq3aa2Fa-XjTyS6zx-i-46" value="" style="endArrow=none;html=1;rounded=0;exitX=0.5;exitY=1;exitDx=0;exitDy=0;entryX=0.5;entryY=0;entryDx=0;entryDy=0;" parent="1" source="Sbq3aa2Fa-XjTyS6zx-i-33" edge="1" target="Sbq3aa2Fa-XjTyS6zx-i-47">
          <mxGeometry relative="1" as="geometry">
            <mxPoint x="1301" y="359.5" as="sourcePoint" />
            <mxPoint x="1381" y="335" as="targetPoint" />
          </mxGeometry>
        </mxCell>
        <mxCell id="Sbq3aa2Fa-XjTyS6zx-i-47" value="Contains" style="shape=rhombus;perimeter=rhombusPerimeter;whiteSpace=wrap;html=1;align=center;" parent="1" vertex="1">
          <mxGeometry x="1180" y="360" width="120" height="60" as="geometry" />
        </mxCell>
        <mxCell id="Sbq3aa2Fa-XjTyS6zx-i-48" value="" style="endArrow=none;html=1;rounded=0;entryX=0.5;entryY=1;entryDx=0;entryDy=0;" parent="1" target="Sbq3aa2Fa-XjTyS6zx-i-47" edge="1">
          <mxGeometry relative="1" as="geometry">
            <mxPoint x="1240" y="460" as="sourcePoint" />
            <mxPoint x="1240" y="460" as="targetPoint" />
          </mxGeometry>
        </mxCell>
        <mxCell id="Sbq3aa2Fa-XjTyS6zx-i-49" value="Product" style="whiteSpace=wrap;html=1;align=center;" parent="1" vertex="1">
          <mxGeometry x="1190" y="450" width="100" height="40" as="geometry" />
        </mxCell>
        <mxCell id="Sbq3aa2Fa-XjTyS6zx-i-50" value="Stock" style="ellipse;whiteSpace=wrap;html=1;align=center;" parent="1" vertex="1">
          <mxGeometry x="1004" y="450" width="100" height="40" as="geometry" />
        </mxCell>
        <mxCell id="Sbq3aa2Fa-XjTyS6zx-i-51" value="" style="endArrow=none;html=1;rounded=0;entryX=0;entryY=0.5;entryDx=0;entryDy=0;exitX=1;exitY=0.5;exitDx=0;exitDy=0;" parent="1" target="Sbq3aa2Fa-XjTyS6zx-i-49" edge="1" source="Sbq3aa2Fa-XjTyS6zx-i-50">
          <mxGeometry relative="1" as="geometry">
            <mxPoint x="1140" y="520" as="sourcePoint" />
            <mxPoint x="1300" y="520" as="targetPoint" />
          </mxGeometry>
        </mxCell>
        <mxCell id="Sbq3aa2Fa-XjTyS6zx-i-52" value="MRP" style="ellipse;whiteSpace=wrap;html=1;align=center;" parent="1" vertex="1">
          <mxGeometry x="1004" y="510" width="100" height="40" as="geometry" />
        </mxCell>
        <mxCell id="Sbq3aa2Fa-XjTyS6zx-i-53" value="" style="endArrow=none;html=1;rounded=0;entryX=0.5;entryY=0;entryDx=0;entryDy=0;exitX=0;exitY=1;exitDx=0;exitDy=0;" parent="1" source="Sbq3aa2Fa-XjTyS6zx-i-49" target="Sbq3aa2Fa-XjTyS6zx-i-52" edge="1">
          <mxGeometry relative="1" as="geometry">
            <mxPoint x="1220" y="510" as="sourcePoint" />
            <mxPoint x="1380" y="510" as="targetPoint" />
          </mxGeometry>
        </mxCell>
        <mxCell id="Sbq3aa2Fa-XjTyS6zx-i-54" value="" style="endArrow=none;html=1;rounded=0;entryX=0.5;entryY=0;entryDx=0;entryDy=0;" parent="1" edge="1" target="Sbq3aa2Fa-XjTyS6zx-i-56">
          <mxGeometry relative="1" as="geometry">
            <mxPoint x="1290" y="490" as="sourcePoint" />
            <mxPoint x="1398" y="522" as="targetPoint" />
          </mxGeometry>
        </mxCell>
        <mxCell id="Sbq3aa2Fa-XjTyS6zx-i-56" value="Product ID" style="ellipse;whiteSpace=wrap;html=1;align=center;fontStyle=4;" parent="1" vertex="1">
          <mxGeometry x="1380" y="510" width="100" height="40" as="geometry" />
        </mxCell>
        <mxCell id="Sbq3aa2Fa-XjTyS6zx-i-59" value="Cart ID*" style="ellipse;whiteSpace=wrap;html=1;align=center;" parent="1" vertex="1">
          <mxGeometry x="1390" y="450" width="100" height="40" as="geometry" />
        </mxCell>
        <mxCell id="Sbq3aa2Fa-XjTyS6zx-i-60" value="" style="endArrow=none;html=1;rounded=0;entryX=0;entryY=0.5;entryDx=0;entryDy=0;" parent="1" target="Sbq3aa2Fa-XjTyS6zx-i-59" edge="1">
          <mxGeometry relative="1" as="geometry">
            <mxPoint x="1290" y="469.5" as="sourcePoint" />
            <mxPoint x="1360" y="470" as="targetPoint" />
          </mxGeometry>
        </mxCell>
        <mxCell id="Sbq3aa2Fa-XjTyS6zx-i-62" value="User ID*" style="ellipse;whiteSpace=wrap;html=1;align=center;" parent="1" vertex="1">
          <mxGeometry x="1271" y="165" width="100" height="40" as="geometry" />
        </mxCell>
        <mxCell id="Sbq3aa2Fa-XjTyS6zx-i-63" value="Cart ID" style="ellipse;whiteSpace=wrap;html=1;align=center;fontStyle=4;" parent="1" vertex="1">
          <mxGeometry x="1130" y="165" width="100" height="40" as="geometry" />
        </mxCell>
        <mxCell id="Sbq3aa2Fa-XjTyS6zx-i-64" value="" style="endArrow=none;html=1;rounded=0;entryX=0.5;entryY=1;entryDx=0;entryDy=0;exitX=0.5;exitY=0;exitDx=0;exitDy=0;" parent="1" source="Sbq3aa2Fa-XjTyS6zx-i-33" edge="1">
          <mxGeometry relative="1" as="geometry">
            <mxPoint x="1051" y="355" as="sourcePoint" />
            <mxPoint x="1191" y="205" as="targetPoint" />
          </mxGeometry>
        </mxCell>
        <mxCell id="Sbq3aa2Fa-XjTyS6zx-i-65" value="" style="endArrow=none;html=1;rounded=0;entryX=0.5;entryY=1;entryDx=0;entryDy=0;exitX=0.75;exitY=0;exitDx=0;exitDy=0;" parent="1" source="Sbq3aa2Fa-XjTyS6zx-i-33" target="Sbq3aa2Fa-XjTyS6zx-i-62" edge="1">
          <mxGeometry relative="1" as="geometry">
            <mxPoint x="1051" y="355" as="sourcePoint" />
            <mxPoint x="1211" y="355" as="targetPoint" />
          </mxGeometry>
        </mxCell>
        <mxCell id="Sbq3aa2Fa-XjTyS6zx-i-66" value="Total Amount" style="ellipse;whiteSpace=wrap;html=1;align=center;dashed=1;" parent="1" vertex="1">
          <mxGeometry x="1331" y="260" width="100" height="40" as="geometry" />
        </mxCell>
        <mxCell id="Sbq3aa2Fa-XjTyS6zx-i-67" value="" style="endArrow=none;html=1;rounded=0;entryX=0;entryY=0.5;entryDx=0;entryDy=0;exitX=1;exitY=0.5;exitDx=0;exitDy=0;" parent="1" source="Sbq3aa2Fa-XjTyS6zx-i-33" target="Sbq3aa2Fa-XjTyS6zx-i-66" edge="1">
          <mxGeometry relative="1" as="geometry">
            <mxPoint x="1061" y="365" as="sourcePoint" />
            <mxPoint x="1221" y="365" as="targetPoint" />
          </mxGeometry>
        </mxCell>
        <mxCell id="Sbq3aa2Fa-XjTyS6zx-i-69" value="has" style="shape=rhombus;perimeter=rhombusPerimeter;whiteSpace=wrap;html=1;align=center;" parent="1" vertex="1">
          <mxGeometry x="1181" y="595" width="120" height="60" as="geometry" />
        </mxCell>
        <mxCell id="Sbq3aa2Fa-XjTyS6zx-i-70" value="" style="endArrow=none;html=1;rounded=0;entryX=0.5;entryY=1;entryDx=0;entryDy=0;" parent="1" target="Sbq3aa2Fa-XjTyS6zx-i-69" edge="1">
          <mxGeometry relative="1" as="geometry">
            <mxPoint x="1240" y="705" as="sourcePoint" />
            <mxPoint x="1290" y="685" as="targetPoint" />
          </mxGeometry>
        </mxCell>
        <mxCell id="Sbq3aa2Fa-XjTyS6zx-i-71" value="Product Category" style="whiteSpace=wrap;html=1;align=center;" parent="1" vertex="1">
          <mxGeometry x="1191" y="705" width="100" height="40" as="geometry" />
        </mxCell>
        <mxCell id="Sbq3aa2Fa-XjTyS6zx-i-72" value="" style="endArrow=none;html=1;rounded=0;entryX=0;entryY=0.5;entryDx=0;entryDy=0;exitX=1;exitY=0.5;exitDx=0;exitDy=0;" parent="1" target="Sbq3aa2Fa-XjTyS6zx-i-71" edge="1" source="Sbq3aa2Fa-XjTyS6zx-i-73">
          <mxGeometry relative="1" as="geometry">
            <mxPoint x="1216" y="645" as="sourcePoint" />
            <mxPoint x="1450" y="535" as="targetPoint" />
            <Array as="points" />
          </mxGeometry>
        </mxCell>
        <mxCell id="Sbq3aa2Fa-XjTyS6zx-i-73" value="Name" style="ellipse;whiteSpace=wrap;html=1;align=center;" parent="1" vertex="1">
          <mxGeometry x="1040" y="705" width="100" height="40" as="geometry" />
        </mxCell>
        <mxCell id="Sbq3aa2Fa-XjTyS6zx-i-75" value="" style="endArrow=none;html=1;rounded=0;exitX=0.5;exitY=1;exitDx=0;exitDy=0;entryX=0.5;entryY=0;entryDx=0;entryDy=0;" parent="1" source="Sbq3aa2Fa-XjTyS6zx-i-71" edge="1" target="Sbq3aa2Fa-XjTyS6zx-i-76">
          <mxGeometry relative="1" as="geometry">
            <mxPoint x="1240" y="815" as="sourcePoint" />
            <mxPoint x="1240" y="785" as="targetPoint" />
          </mxGeometry>
        </mxCell>
        <mxCell id="Sbq3aa2Fa-XjTyS6zx-i-76" value="Description" style="ellipse;whiteSpace=wrap;html=1;align=center;" parent="1" vertex="1">
          <mxGeometry x="1191" y="780" width="100" height="40" as="geometry" />
        </mxCell>
        <mxCell id="Sbq3aa2Fa-XjTyS6zx-i-77" value="" style="endArrow=none;html=1;rounded=0;entryX=0.5;entryY=0;entryDx=0;entryDy=0;" parent="1" edge="1" target="Sbq3aa2Fa-XjTyS6zx-i-78">
          <mxGeometry relative="1" as="geometry">
            <mxPoint x="719" y="310" as="sourcePoint" />
            <mxPoint x="720" y="610" as="targetPoint" />
          </mxGeometry>
        </mxCell>
        <mxCell id="Sbq3aa2Fa-XjTyS6zx-i-78" value="Places" style="shape=rhombus;perimeter=rhombusPerimeter;whiteSpace=wrap;html=1;align=center;" parent="1" vertex="1">
          <mxGeometry x="655" y="615" width="120" height="60" as="geometry" />
        </mxCell>
        <mxCell id="Sbq3aa2Fa-XjTyS6zx-i-79" value="Order" style="whiteSpace=wrap;html=1;align=center;" parent="1" vertex="1">
          <mxGeometry x="665" y="770" width="100" height="40" as="geometry" />
        </mxCell>
        <mxCell id="Sbq3aa2Fa-XjTyS6zx-i-94" value="" style="endArrow=none;html=1;rounded=0;exitX=0.5;exitY=1;exitDx=0;exitDy=0;entryX=0.5;entryY=0;entryDx=0;entryDy=0;" parent="1" source="Sbq3aa2Fa-XjTyS6zx-i-78" target="Sbq3aa2Fa-XjTyS6zx-i-79" edge="1">
          <mxGeometry relative="1" as="geometry">
            <mxPoint x="790" y="110" as="sourcePoint" />
            <mxPoint x="760" y="760" as="targetPoint" />
          </mxGeometry>
        </mxCell>
        <mxCell id="Sbq3aa2Fa-XjTyS6zx-i-95" value="amount" style="ellipse;whiteSpace=wrap;html=1;align=center;" parent="1" vertex="1">
          <mxGeometry x="840" y="780" width="100" height="40" as="geometry" />
        </mxCell>
        <mxCell id="Sbq3aa2Fa-XjTyS6zx-i-96" value="" style="endArrow=none;html=1;rounded=0;exitX=1;exitY=0.5;exitDx=0;exitDy=0;entryX=0;entryY=0.5;entryDx=0;entryDy=0;" parent="1" source="Sbq3aa2Fa-XjTyS6zx-i-79" target="Sbq3aa2Fa-XjTyS6zx-i-95" edge="1">
          <mxGeometry relative="1" as="geometry">
            <mxPoint x="860" y="740" as="sourcePoint" />
            <mxPoint x="1020" y="740" as="targetPoint" />
            <Array as="points" />
          </mxGeometry>
        </mxCell>
        <mxCell id="Sbq3aa2Fa-XjTyS6zx-i-99" value="" style="endArrow=none;html=1;rounded=0;exitX=0.5;exitY=1;exitDx=0;exitDy=0;entryX=0.5;entryY=0;entryDx=0;entryDy=0;" parent="1" source="Sbq3aa2Fa-XjTyS6zx-i-79" target="Sbq3aa2Fa-XjTyS6zx-i-101" edge="1">
          <mxGeometry relative="1" as="geometry">
            <mxPoint x="791" y="880" as="sourcePoint" />
            <mxPoint x="840" y="860" as="targetPoint" />
          </mxGeometry>
        </mxCell>
        <mxCell id="Sbq3aa2Fa-XjTyS6zx-i-101" value="Order ID" style="ellipse;whiteSpace=wrap;html=1;align=center;fontStyle=4;" parent="1" vertex="1">
          <mxGeometry x="710" y="870" width="100" height="40" as="geometry" />
        </mxCell>
        <mxCell id="Sbq3aa2Fa-XjTyS6zx-i-102" value="U-ID*" style="ellipse;whiteSpace=wrap;html=1;align=center;" parent="1" vertex="1">
          <mxGeometry x="590" y="870" width="100" height="40" as="geometry" />
        </mxCell>
        <mxCell id="Sbq3aa2Fa-XjTyS6zx-i-103" value="" style="endArrow=none;html=1;rounded=0;entryX=0.25;entryY=1;entryDx=0;entryDy=0;exitX=0.5;exitY=0;exitDx=0;exitDy=0;" parent="1" source="Sbq3aa2Fa-XjTyS6zx-i-102" target="Sbq3aa2Fa-XjTyS6zx-i-79" edge="1">
          <mxGeometry relative="1" as="geometry">
            <mxPoint x="640" y="859.5" as="sourcePoint" />
            <mxPoint x="800" y="859.5" as="targetPoint" />
          </mxGeometry>
        </mxCell>
        <mxCell id="Sbq3aa2Fa-XjTyS6zx-i-104" value="" style="endArrow=none;html=1;rounded=0;entryX=0;entryY=0;entryDx=0;entryDy=0;exitX=0.75;exitY=1;exitDx=0;exitDy=0;" parent="1" edge="1" target="Sbq3aa2Fa-XjTyS6zx-i-105" source="Sbq3aa2Fa-XjTyS6zx-i-79">
          <mxGeometry relative="1" as="geometry">
            <mxPoint x="760" y="820" as="sourcePoint" />
            <mxPoint x="900" y="970" as="targetPoint" />
          </mxGeometry>
        </mxCell>
        <mxCell id="Sbq3aa2Fa-XjTyS6zx-i-105" value="has" style="shape=rhombus;perimeter=rhombusPerimeter;whiteSpace=wrap;html=1;align=center;" parent="1" vertex="1">
          <mxGeometry x="950" y="910" width="120" height="60" as="geometry" />
        </mxCell>
        <mxCell id="Sbq3aa2Fa-XjTyS6zx-i-106" value="" style="endArrow=none;html=1;rounded=0;exitX=1;exitY=1;exitDx=0;exitDy=0;" parent="1" source="Sbq3aa2Fa-XjTyS6zx-i-105" edge="1">
          <mxGeometry relative="1" as="geometry">
            <mxPoint x="1120" y="1010" as="sourcePoint" />
            <mxPoint x="1160" y="1010" as="targetPoint" />
          </mxGeometry>
        </mxCell>
        <mxCell id="Sbq3aa2Fa-XjTyS6zx-i-107" value="shipping" style="whiteSpace=wrap;html=1;align=center;" parent="1" vertex="1">
          <mxGeometry x="1120" y="1010" width="100" height="40" as="geometry" />
        </mxCell>
        <mxCell id="Sbq3aa2Fa-XjTyS6zx-i-108" value="" style="endArrow=none;html=1;rounded=0;" parent="1" edge="1">
          <mxGeometry relative="1" as="geometry">
            <mxPoint x="1195" y="1010" as="sourcePoint" />
            <mxPoint x="1240" y="970" as="targetPoint" />
          </mxGeometry>
        </mxCell>
        <mxCell id="Sbq3aa2Fa-XjTyS6zx-i-109" value="Shipping ID" style="ellipse;whiteSpace=wrap;html=1;align=center;fontStyle=4;" parent="1" vertex="1">
          <mxGeometry x="1200" y="930" width="100" height="40" as="geometry" />
        </mxCell>
        <mxCell id="Sbq3aa2Fa-XjTyS6zx-i-110" value="" style="endArrow=none;html=1;rounded=0;exitX=1;exitY=0.5;exitDx=0;exitDy=0;" parent="1" source="Sbq3aa2Fa-XjTyS6zx-i-107" edge="1">
          <mxGeometry relative="1" as="geometry">
            <mxPoint x="1160" y="1090" as="sourcePoint" />
            <mxPoint x="1320" y="1030" as="targetPoint" />
          </mxGeometry>
        </mxCell>
        <mxCell id="Sbq3aa2Fa-XjTyS6zx-i-111" value="Tracking Details" style="ellipse;whiteSpace=wrap;html=1;align=center;" parent="1" vertex="1">
          <mxGeometry x="1320" y="1010" width="100" height="40" as="geometry" />
        </mxCell>
        <mxCell id="Sbq3aa2Fa-XjTyS6zx-i-112" value="Order ID*" style="ellipse;whiteSpace=wrap;html=1;align=center;" parent="1" vertex="1">
          <mxGeometry x="1210" y="1080" width="100" height="40" as="geometry" />
        </mxCell>
        <mxCell id="Sbq3aa2Fa-XjTyS6zx-i-113" value="" style="endArrow=none;html=1;rounded=0;entryX=0.5;entryY=1;entryDx=0;entryDy=0;exitX=0.5;exitY=0;exitDx=0;exitDy=0;" parent="1" source="Sbq3aa2Fa-XjTyS6zx-i-112" target="Sbq3aa2Fa-XjTyS6zx-i-107" edge="1">
          <mxGeometry relative="1" as="geometry">
            <mxPoint x="910" y="920" as="sourcePoint" />
            <mxPoint x="1070" y="920" as="targetPoint" />
          </mxGeometry>
        </mxCell>
        <mxCell id="Sbq3aa2Fa-XjTyS6zx-i-114" value="" style="endArrow=none;html=1;rounded=0;entryX=0;entryY=0.5;entryDx=0;entryDy=0;" parent="1" target="Sbq3aa2Fa-XjTyS6zx-i-107" edge="1">
          <mxGeometry relative="1" as="geometry">
            <mxPoint x="1040" y="1030" as="sourcePoint" />
            <mxPoint x="1070" y="920" as="targetPoint" />
          </mxGeometry>
        </mxCell>
        <mxCell id="Sbq3aa2Fa-XjTyS6zx-i-115" value="Shipping label" style="ellipse;whiteSpace=wrap;html=1;align=center;" parent="1" vertex="1">
          <mxGeometry x="940" y="1010" width="100" height="40" as="geometry" />
        </mxCell>
        <mxCell id="Sbq3aa2Fa-XjTyS6zx-i-116" value="" style="shape=link;html=1;rounded=0;entryX=0;entryY=0.5;entryDx=0;entryDy=0;" parent="1" target="Sbq3aa2Fa-XjTyS6zx-i-79" edge="1" source="Sbq3aa2Fa-XjTyS6zx-i-117">
          <mxGeometry width="100" relative="1" as="geometry">
            <mxPoint x="560" y="910" as="sourcePoint" />
            <mxPoint x="660" y="910" as="targetPoint" />
          </mxGeometry>
        </mxCell>
        <mxCell id="Sbq3aa2Fa-XjTyS6zx-i-117" value="For" style="rhombus;whiteSpace=wrap;html=1;" parent="1" vertex="1">
          <mxGeometry x="520" y="690" width="80" height="80" as="geometry" />
        </mxCell>
        <mxCell id="Sbq3aa2Fa-XjTyS6zx-i-118" value="" style="shape=link;html=1;rounded=0;entryX=0.16;entryY=0.294;entryDx=0;entryDy=0;exitX=1;exitY=0.5;exitDx=0;exitDy=0;entryPerimeter=0;" parent="1" target="Sbq3aa2Fa-XjTyS6zx-i-117" edge="1" source="Sbq3aa2Fa-XjTyS6zx-i-119">
          <mxGeometry width="100" relative="1" as="geometry">
            <mxPoint x="460" y="1010" as="sourcePoint" />
            <mxPoint x="660" y="910" as="targetPoint" />
          </mxGeometry>
        </mxCell>
        <mxCell id="Sbq3aa2Fa-XjTyS6zx-i-119" value="payments" style="whiteSpace=wrap;html=1;align=center;" parent="1" vertex="1">
          <mxGeometry x="350" y="635" width="100" height="40" as="geometry" />
        </mxCell>
        <mxCell id="Qe4SS81F0-tgrvaNX6qW-2" value="method" style="ellipse;whiteSpace=wrap;html=1;align=center;" vertex="1" parent="1">
          <mxGeometry x="350" y="730" width="100" height="40" as="geometry" />
        </mxCell>
        <mxCell id="Qe4SS81F0-tgrvaNX6qW-3" value="order id*" style="ellipse;whiteSpace=wrap;html=1;align=center;" vertex="1" parent="1">
          <mxGeometry x="230" y="745" width="100" height="40" as="geometry" />
        </mxCell>
        <mxCell id="Qe4SS81F0-tgrvaNX6qW-4" value="date of payments" style="ellipse;whiteSpace=wrap;html=1;align=center;" vertex="1" parent="1">
          <mxGeometry x="250" y="530" width="100" height="40" as="geometry" />
        </mxCell>
        <mxCell id="Qe4SS81F0-tgrvaNX6qW-5" value="User ID*" style="ellipse;whiteSpace=wrap;html=1;align=center;" vertex="1" parent="1">
          <mxGeometry x="190" y="635" width="100" height="40" as="geometry" />
        </mxCell>
        <mxCell id="Qe4SS81F0-tgrvaNX6qW-9" value="payment id" style="ellipse;whiteSpace=wrap;html=1;align=center;fontStyle=4;" vertex="1" parent="1">
          <mxGeometry x="520" y="585" width="100" height="40" as="geometry" />
        </mxCell>
        <mxCell id="Qe4SS81F0-tgrvaNX6qW-10" value="" style="endArrow=none;html=1;rounded=0;exitX=0;exitY=0.5;exitDx=0;exitDy=0;entryX=0.75;entryY=0;entryDx=0;entryDy=0;" edge="1" parent="1" source="Qe4SS81F0-tgrvaNX6qW-9" target="Sbq3aa2Fa-XjTyS6zx-i-119">
          <mxGeometry width="50" height="50" relative="1" as="geometry">
            <mxPoint x="810" y="1030" as="sourcePoint" />
            <mxPoint x="860" y="980" as="targetPoint" />
          </mxGeometry>
        </mxCell>
        <mxCell id="Qe4SS81F0-tgrvaNX6qW-11" value="" style="endArrow=none;html=1;rounded=0;exitX=0.5;exitY=0;exitDx=0;exitDy=0;entryX=0.5;entryY=1;entryDx=0;entryDy=0;" edge="1" parent="1" source="Qe4SS81F0-tgrvaNX6qW-2" target="Sbq3aa2Fa-XjTyS6zx-i-119">
          <mxGeometry width="50" height="50" relative="1" as="geometry">
            <mxPoint x="810" y="1030" as="sourcePoint" />
            <mxPoint x="860" y="980" as="targetPoint" />
          </mxGeometry>
        </mxCell>
        <mxCell id="Qe4SS81F0-tgrvaNX6qW-12" value="" style="endArrow=none;html=1;rounded=0;exitX=1;exitY=0.5;exitDx=0;exitDy=0;entryX=0;entryY=0.5;entryDx=0;entryDy=0;" edge="1" parent="1" source="Qe4SS81F0-tgrvaNX6qW-5" target="Sbq3aa2Fa-XjTyS6zx-i-119">
          <mxGeometry width="50" height="50" relative="1" as="geometry">
            <mxPoint x="810" y="1030" as="sourcePoint" />
            <mxPoint x="860" y="980" as="targetPoint" />
          </mxGeometry>
        </mxCell>
        <mxCell id="Qe4SS81F0-tgrvaNX6qW-13" value="" style="endArrow=none;html=1;rounded=0;exitX=0.5;exitY=0;exitDx=0;exitDy=0;entryX=0.143;entryY=0.979;entryDx=0;entryDy=0;entryPerimeter=0;" edge="1" parent="1" source="Qe4SS81F0-tgrvaNX6qW-3" target="Sbq3aa2Fa-XjTyS6zx-i-119">
          <mxGeometry width="50" height="50" relative="1" as="geometry">
            <mxPoint x="810" y="1030" as="sourcePoint" />
            <mxPoint x="480" y="1040" as="targetPoint" />
          </mxGeometry>
        </mxCell>
        <mxCell id="Qe4SS81F0-tgrvaNX6qW-14" value="" style="endArrow=none;html=1;rounded=0;entryX=0.25;entryY=0;entryDx=0;entryDy=0;exitX=0.5;exitY=1;exitDx=0;exitDy=0;" edge="1" parent="1" source="Qe4SS81F0-tgrvaNX6qW-4" target="Sbq3aa2Fa-XjTyS6zx-i-119">
          <mxGeometry width="50" height="50" relative="1" as="geometry">
            <mxPoint x="290" y="990" as="sourcePoint" />
            <mxPoint x="860" y="980" as="targetPoint" />
          </mxGeometry>
        </mxCell>
        <mxCell id="Qe4SS81F0-tgrvaNX6qW-15" value="" style="endArrow=none;html=1;rounded=0;entryX=0.25;entryY=1;entryDx=0;entryDy=0;" edge="1" parent="1" source="Qe4SS81F0-tgrvaNX6qW-16" target="Sbq3aa2Fa-XjTyS6zx-i-1">
          <mxGeometry width="50" height="50" relative="1" as="geometry">
            <mxPoint x="260" y="370" as="sourcePoint" />
            <mxPoint x="850" y="500" as="targetPoint" />
          </mxGeometry>
        </mxCell>
        <mxCell id="Qe4SS81F0-tgrvaNX6qW-16" value="Makes" style="rhombus;whiteSpace=wrap;html=1;" vertex="1" parent="1">
          <mxGeometry x="520" y="400" width="80" height="80" as="geometry" />
        </mxCell>
        <mxCell id="Qe4SS81F0-tgrvaNX6qW-17" value="" style="shape=link;html=1;rounded=0;entryX=0.5;entryY=0;entryDx=0;entryDy=0;exitX=0;exitY=1;exitDx=0;exitDy=0;" edge="1" parent="1" source="Qe4SS81F0-tgrvaNX6qW-16" target="Sbq3aa2Fa-XjTyS6zx-i-119">
          <mxGeometry width="100" relative="1" as="geometry">
            <mxPoint x="530" y="470" as="sourcePoint" />
            <mxPoint x="360" y="840" as="targetPoint" />
          </mxGeometry>
        </mxCell>
        <mxCell id="Qe4SS81F0-tgrvaNX6qW-19" value="Address" style="whiteSpace=wrap;html=1;align=center;" vertex="1" parent="1">
          <mxGeometry x="210" y="260" width="100" height="40" as="geometry" />
        </mxCell>
        <mxCell id="Qe4SS81F0-tgrvaNX6qW-20" value="House" style="ellipse;whiteSpace=wrap;html=1;align=center;" vertex="1" parent="1">
          <mxGeometry x="60" y="220" width="100" height="40" as="geometry" />
        </mxCell>
        <mxCell id="Qe4SS81F0-tgrvaNX6qW-21" value="User ID*" style="ellipse;whiteSpace=wrap;html=1;align=center;" vertex="1" parent="1">
          <mxGeometry x="150" y="160" width="100" height="40" as="geometry" />
        </mxCell>
        <mxCell id="Qe4SS81F0-tgrvaNX6qW-22" value="address ID" style="ellipse;whiteSpace=wrap;html=1;align=center;" vertex="1" parent="1">
          <mxGeometry x="40" y="290" width="100" height="40" as="geometry" />
        </mxCell>
        <mxCell id="Qe4SS81F0-tgrvaNX6qW-23" value="State" style="ellipse;whiteSpace=wrap;html=1;align=center;" vertex="1" parent="1">
          <mxGeometry x="300" y="160" width="100" height="40" as="geometry" />
        </mxCell>
        <mxCell id="Qe4SS81F0-tgrvaNX6qW-24" value="Pincode" style="ellipse;whiteSpace=wrap;html=1;align=center;" vertex="1" parent="1">
          <mxGeometry x="190" y="360" width="100" height="40" as="geometry" />
        </mxCell>
        <mxCell id="Qe4SS81F0-tgrvaNX6qW-25" value="City" style="ellipse;whiteSpace=wrap;html=1;align=center;" vertex="1" parent="1">
          <mxGeometry x="60" y="360" width="100" height="40" as="geometry" />
        </mxCell>
        <mxCell id="Qe4SS81F0-tgrvaNX6qW-26" value="Stays" style="shape=rhombus;perimeter=rhombusPerimeter;whiteSpace=wrap;html=1;align=center;" vertex="1" parent="1">
          <mxGeometry x="390" y="250" width="120" height="60" as="geometry" />
        </mxCell>
        <mxCell id="Qe4SS81F0-tgrvaNX6qW-29" value="" style="endArrow=none;html=1;rounded=0;exitX=1;exitY=0.5;exitDx=0;exitDy=0;entryX=0;entryY=0.5;entryDx=0;entryDy=0;" edge="1" parent="1" source="Qe4SS81F0-tgrvaNX6qW-19" target="Qe4SS81F0-tgrvaNX6qW-26">
          <mxGeometry relative="1" as="geometry">
            <mxPoint x="470" y="50" as="sourcePoint" />
            <mxPoint x="410" y="180" as="targetPoint" />
          </mxGeometry>
        </mxCell>
        <mxCell id="Qe4SS81F0-tgrvaNX6qW-30" value="" style="endArrow=none;html=1;rounded=0;exitX=0.75;exitY=1;exitDx=0;exitDy=0;entryX=0.5;entryY=0;entryDx=0;entryDy=0;" edge="1" parent="1" source="Qe4SS81F0-tgrvaNX6qW-19" target="Qe4SS81F0-tgrvaNX6qW-24">
          <mxGeometry relative="1" as="geometry">
            <mxPoint x="270" y="310" as="sourcePoint" />
            <mxPoint x="340" y="395" as="targetPoint" />
            <Array as="points" />
          </mxGeometry>
        </mxCell>
        <mxCell id="Qe4SS81F0-tgrvaNX6qW-31" value="" style="endArrow=none;html=1;rounded=0;entryX=0.5;entryY=0;entryDx=0;entryDy=0;exitX=0.5;exitY=1;exitDx=0;exitDy=0;" edge="1" parent="1" source="Qe4SS81F0-tgrvaNX6qW-19" target="Qe4SS81F0-tgrvaNX6qW-25">
          <mxGeometry width="50" height="50" relative="1" as="geometry">
            <mxPoint x="260" y="310" as="sourcePoint" />
            <mxPoint x="400" y="380" as="targetPoint" />
          </mxGeometry>
        </mxCell>
        <mxCell id="Qe4SS81F0-tgrvaNX6qW-32" value="" style="endArrow=none;html=1;rounded=0;entryX=0.297;entryY=0.967;entryDx=0;entryDy=0;entryPerimeter=0;exitX=0.75;exitY=0;exitDx=0;exitDy=0;" edge="1" parent="1" source="Qe4SS81F0-tgrvaNX6qW-19" target="Qe4SS81F0-tgrvaNX6qW-23">
          <mxGeometry width="50" height="50" relative="1" as="geometry">
            <mxPoint x="350" y="430" as="sourcePoint" />
            <mxPoint x="400" y="380" as="targetPoint" />
          </mxGeometry>
        </mxCell>
        <mxCell id="Qe4SS81F0-tgrvaNX6qW-33" value="" style="endArrow=none;html=1;rounded=0;entryX=0.605;entryY=1.029;entryDx=0;entryDy=0;entryPerimeter=0;" edge="1" parent="1" target="Qe4SS81F0-tgrvaNX6qW-21">
          <mxGeometry width="50" height="50" relative="1" as="geometry">
            <mxPoint x="250" y="260" as="sourcePoint" />
            <mxPoint x="400" y="380" as="targetPoint" />
          </mxGeometry>
        </mxCell>
        <mxCell id="Qe4SS81F0-tgrvaNX6qW-34" value="" style="endArrow=none;html=1;rounded=0;entryX=0.913;entryY=0.758;entryDx=0;entryDy=0;entryPerimeter=0;exitX=0;exitY=0.5;exitDx=0;exitDy=0;" edge="1" parent="1" source="Qe4SS81F0-tgrvaNX6qW-19" target="Qe4SS81F0-tgrvaNX6qW-20">
          <mxGeometry width="50" height="50" relative="1" as="geometry">
            <mxPoint x="350" y="430" as="sourcePoint" />
            <mxPoint x="400" y="380" as="targetPoint" />
          </mxGeometry>
        </mxCell>
        <mxCell id="Qe4SS81F0-tgrvaNX6qW-35" value="" style="endArrow=none;html=1;rounded=0;entryX=1;entryY=0.5;entryDx=0;entryDy=0;exitX=0;exitY=1;exitDx=0;exitDy=0;" edge="1" parent="1" source="Qe4SS81F0-tgrvaNX6qW-19" target="Qe4SS81F0-tgrvaNX6qW-22">
          <mxGeometry width="50" height="50" relative="1" as="geometry">
            <mxPoint x="350" y="430" as="sourcePoint" />
            <mxPoint x="400" y="380" as="targetPoint" />
          </mxGeometry>
        </mxCell>
        <mxCell id="Qe4SS81F0-tgrvaNX6qW-36" value="" style="endArrow=none;html=1;rounded=0;exitX=0.5;exitY=0;exitDx=0;exitDy=0;entryX=0.5;entryY=1;entryDx=0;entryDy=0;" edge="1" parent="1" source="Sbq3aa2Fa-XjTyS6zx-i-6" target="Qe4SS81F0-tgrvaNX6qW-39">
          <mxGeometry width="50" height="50" relative="1" as="geometry">
            <mxPoint x="920" y="170" as="sourcePoint" />
            <mxPoint x="830" y="60" as="targetPoint" />
          </mxGeometry>
        </mxCell>
        <mxCell id="Qe4SS81F0-tgrvaNX6qW-38" value="" style="endArrow=none;html=1;rounded=0;exitX=0.978;exitY=0.35;exitDx=0;exitDy=0;exitPerimeter=0;entryX=0;entryY=0.5;entryDx=0;entryDy=0;" edge="1" parent="1" source="Sbq3aa2Fa-XjTyS6zx-i-6" target="Qe4SS81F0-tgrvaNX6qW-41">
          <mxGeometry width="50" height="50" relative="1" as="geometry">
            <mxPoint x="920" y="170" as="sourcePoint" />
            <mxPoint x="960" y="80" as="targetPoint" />
          </mxGeometry>
        </mxCell>
        <mxCell id="Qe4SS81F0-tgrvaNX6qW-39" value="First Name" style="ellipse;whiteSpace=wrap;html=1;align=center;" vertex="1" parent="1">
          <mxGeometry x="710" y="40" width="100" height="40" as="geometry" />
        </mxCell>
        <mxCell id="Qe4SS81F0-tgrvaNX6qW-41" value="Last Name" style="ellipse;whiteSpace=wrap;html=1;align=center;" vertex="1" parent="1">
          <mxGeometry x="860" y="90" width="90" height="40" as="geometry" />
        </mxCell>
        <mxCell id="Qe4SS81F0-tgrvaNX6qW-42" value="cat-id" style="ellipse;whiteSpace=wrap;html=1;align=center;" vertex="1" parent="1">
          <mxGeometry x="1360" y="705" width="100" height="40" as="geometry" />
        </mxCell>
        <mxCell id="Qe4SS81F0-tgrvaNX6qW-43" value="" style="endArrow=none;html=1;rounded=0;entryX=1;entryY=0.5;entryDx=0;entryDy=0;exitX=0;exitY=0.5;exitDx=0;exitDy=0;" edge="1" parent="1" source="Qe4SS81F0-tgrvaNX6qW-42" target="Sbq3aa2Fa-XjTyS6zx-i-71">
          <mxGeometry relative="1" as="geometry">
            <mxPoint x="1226" y="655" as="sourcePoint" />
            <mxPoint x="1226" y="715" as="targetPoint" />
            <Array as="points" />
          </mxGeometry>
        </mxCell>
        <mxCell id="Qe4SS81F0-tgrvaNX6qW-44" value="" style="endArrow=none;html=1;rounded=0;entryX=0.5;entryY=1;entryDx=0;entryDy=0;exitX=0.5;exitY=0;exitDx=0;exitDy=0;" edge="1" parent="1" source="Sbq3aa2Fa-XjTyS6zx-i-1" target="Sbq3aa2Fa-XjTyS6zx-i-7">
          <mxGeometry width="50" height="50" relative="1" as="geometry">
            <mxPoint x="660" y="560" as="sourcePoint" />
            <mxPoint x="710" y="510" as="targetPoint" />
          </mxGeometry>
        </mxCell>
        <mxCell id="Qe4SS81F0-tgrvaNX6qW-46" value="" style="endArrow=none;html=1;rounded=0;entryX=0.5;entryY=1;entryDx=0;entryDy=0;exitX=0.5;exitY=0;exitDx=0;exitDy=0;" edge="1" parent="1" source="Sbq3aa2Fa-XjTyS6zx-i-69" target="Sbq3aa2Fa-XjTyS6zx-i-49">
          <mxGeometry width="50" height="50" relative="1" as="geometry">
            <mxPoint x="1240" y="590" as="sourcePoint" />
            <mxPoint x="1110" y="570" as="targetPoint" />
          </mxGeometry>
        </mxCell>
      </root>
    </mxGraphModel>
  </diagram>
</mxfile>
